<svg xmlns="http://www.w3.org/2000/svg" width="1536" height="1024" viewBox="0 0 1536 1024">
  <defs>
    <linearGradient id="bg" x1="0" y1="0" x2="1" y2="1">
      <stop offset="0%" stop-color="#f8fbff"/>
      <stop offset="45%" stop-color="#eef6ff"/>
      <stop offset="100%" stop-color="#cfe4ff"/>
    </linearGradient>
    <linearGradient id="blue" x1="0" y1="0" x2="1" y2="1">
      <stop offset="0%" stop-color="#052a75"/>
      <stop offset="100%" stop-color="#0d6efd"/>
    </linearGradient>
    <radialGradient id="globe" cx="50%" cy="45%" r="55%">
      <stop offset="0%" stop-color="#ffffff" stop-opacity="0.95"/>
      <stop offset="40%" stop-color="#74b7ff" stop-opacity="0.92"/>
      <stop offset="100%" stop-color="#0b64f6" stop-opacity="0.88"/>
    </radialGradient>
    <filter id="shadow" x="-20%" y="-20%" width="140%" height="140%">
      <feDropShadow dx="0" dy="22" stdDeviation="22" flood-color="#0b55d9" flood-opacity="0.22"/>
    </filter>
  </defs>
  <rect width="1536" height="1024" fill="url(#bg)"/>
  <circle cx="1320" cy="150" r="420" fill="#4f9dff" opacity="0.11"/>
  <circle cx="1120" cy="850" r="380" fill="#0d6efd" opacity="0.08"/>

  <g transform="translate(74 90)">
    <circle cx="48" cy="48" r="38" fill="url(#blue)"/>
    <circle cx="48" cy="48" r="20" fill="#f8fbff"/>
    <circle cx="80" cy="18" r="11" fill="#0d6efd"/>
    <text x="118" y="62" font-family="Arial, Helvetica, sans-serif" font-size="42" font-weight="700" fill="#061747">OneAI Daily</text>
  </g>

  <g transform="translate(74 250)">
    <text x="0" y="110" font-family="Arial, Helvetica, sans-serif" font-size="128" font-weight="800" fill="#061747">OneAI</text>
    <text x="610" y="110" font-family="Arial, Helvetica, sans-serif" font-size="128" font-weight="800" fill="#0d63f2">Daily</text>
    <rect x="0" y="150" width="92" height="8" rx="4" fill="#0d63f2"/>
    <text x="0" y="245" font-family="Arial, Helvetica, sans-serif" font-size="50" font-weight="700" fill="#061747" letter-spacing="2">AI NEWSLETTER · TOP 5 STORIES</text>
  </g>

  <g transform="translate(74 575)" font-family="Arial, Helvetica, sans-serif" text-anchor="middle">
    <g transform="translate(42 0)"><circle r="48" fill="#e5f1ff"/><text y="13" font-size="40" fill="#0d63f2">AI</text><text y="98" font-size="22" fill="#061747">AI & Tech</text></g>
    <g transform="translate(185 0)"><circle r="48" fill="#e5f1ff"/><text y="13" font-size="42" fill="#0d63f2">↗</text><text y="98" font-size="22" fill="#061747">Markets</text></g>
    <g transform="translate(328 0)"><circle r="48" fill="#e5f1ff"/><text y="13" font-size="42" fill="#0d63f2">◎</text><text y="98" font-size="22" fill="#061747">World</text></g>
    <g transform="translate(471 0)"><circle r="48" fill="#e5f1ff"/><text y="13" font-size="42" fill="#0d63f2">S</text><text y="98" font-size="22" fill="#061747">Science</text></g>
    <g transform="translate(614 0)"><circle r="48" fill="#e5f1ff"/><text y="13" font-size="42" fill="#0d63f2">R</text><text y="98" font-size="22" fill="#061747">Startups</text></g>
    <g transform="translate(757 0)"><circle r="48" fill="#e5f1ff"/><text y="13" font-size="42" fill="#0d63f2">•</text><text y="98" font-size="22" fill="#061747">Sports</text></g>
  </g>

  <g transform="translate(76 795)">
    <text x="0" y="0" font-family="Arial, Helvetica, sans-serif" font-size="80" fill="#0d63f2">“</text>
    <text x="90" y="18" font-family="Arial, Helvetica, sans-serif" font-size="32" font-weight="700" fill="#061747">Understand AI. Understand the World.</text>
    <text x="90" y="66" font-family="Arial, Helvetica, sans-serif" font-size="28" fill="#42526e">Stay curious. Stay informed. Shape the future.</text>
  </g>

  <g transform="translate(875 160)" filter="url(#shadow)">
    <circle cx="330" cy="255" r="250" fill="url(#globe)"/>
    <circle cx="330" cy="255" r="250" fill="none" stroke="#ffffff" stroke-width="5" opacity="0.55"/>
    <path d="M100 255h460M330 5v500M160 110c120 70 230 70 340 0M160 400c120-70 230-70 340 0" stroke="#ffffff" stroke-width="3" opacity="0.45" fill="none"/>
    <ellipse cx="330" cy="255" rx="300" ry="80" fill="none" stroke="#ffffff" stroke-width="5" opacity="0.5" transform="rotate(-20 330 255)"/>
    <ellipse cx="330" cy="255" rx="300" ry="80" fill="none" stroke="#ffffff" stroke-width="4" opacity="0.38" transform="rotate(30 330 255)"/>
    <ellipse cx="330" cy="620" rx="330" ry="74" fill="#0b64f6" opacity="0.18"/>
    <ellipse cx="330" cy="585" rx="280" ry="58" fill="#ffffff" opacity="0.55"/>
    <ellipse cx="330" cy="585" rx="240" ry="45" fill="#0d63f2" opacity="0.25"/>
    <text x="120" y="640" font-family="Arial, Helvetica, sans-serif" font-size="350" font-weight="900" fill="#ffffff" stroke="#0b63f6" stroke-width="8">AI</text>
  </g>
</svg>
