<svg xmlns="http://www.w3.org/2000/svg" width="1200" height="675" viewBox="0 0 1200 675" role="img" aria-label="UBS AI infrastructure stocks daily briefing card">
  <defs><linearGradient id="g" x1="0" x2="1" y1="0" y2="1"><stop offset="0" stop-color="#452d13"/><stop offset="1" stop-color="#e6912b"/></linearGradient></defs>
  <rect width="1200" height="675" rx="44" fill="url(#g)"/>
  <rect x="54" y="50" width="1092" height="575" rx="34" fill="none" stroke="#fff7ee" stroke-width="4" opacity="0.92"/>
  <text x="86" y="126" font-family="Arial, 'Noto Sans CJK SC', sans-serif" font-size="36" font-weight="700" fill="#fff0df">ONEAI DAILY</text>
  <text x="86" y="177" font-family="Arial, 'Noto Sans CJK SC', sans-serif" font-size="30" font-weight="700" fill="#fff0df">TOP STORY 5 · AI 基建</text>
  <text x="86" y="300" font-family="Arial, 'Noto Sans CJK SC', sans-serif" font-size="58" font-weight="800" fill="#ffffff">Hardware beats</text>
  <text x="86" y="370" font-family="Arial, 'Noto Sans CJK SC', sans-serif" font-size="58" font-weight="800" fill="#ffffff">hyperscalers</text>
  <text x="88" y="442" font-family="Arial, 'Noto Sans CJK SC', sans-serif" font-size="32" fill="#fff0df">Memory and chips capture AI returns</text>
  <g transform="translate(860 178)" opacity="0.92">
    <rect x="0" y="0" width="220" height="220" rx="28" fill="#ffffff" opacity="0.14"/>
    <rect x="58" y="58" width="104" height="104" rx="14" fill="none" stroke="#ffffff" stroke-width="8"/>
    <path d="M78 88h64M78 112h64M78 136h44" stroke="#ffffff" stroke-width="7" stroke-linecap="round"/>
    <path d="M40 88H20M40 112H20M40 136H20M180 88h20M180 112h20M180 136h20" stroke="#ffffff" stroke-width="7" stroke-linecap="round" opacity="0.82"/>
    <path d="M82 40V20M110 40V20M138 40V20M82 180v20M110 180v20M138 180v20" stroke="#ffffff" stroke-width="7" stroke-linecap="round" opacity="0.82"/>
  </g>
  <text x="86" y="582" font-family="Arial, 'Noto Sans CJK SC', sans-serif" font-size="28" font-weight="700" fill="#fff0df">Understand AI. Understand the World.</text>
</svg>
